<mxfile host="Electron" modified="2024-05-15T16:49:56.730Z" agent="Mozilla/5.0 (Windows NT 10.0; Win64; x64) AppleWebKit/537.36 (KHTML, like Gecko) draw.io/24.4.0 Chrome/120.0.6099.109 Electron/28.1.0 Safari/537.36" etag="nJNjO6fprUAaRkurlmCF" version="24.4.0" type="device">
  <diagram name="Страница — 1" id="w5MmcbfHTvKzc3u_YX2h">
    <mxGraphModel dx="1459" dy="1051" grid="0" gridSize="10" guides="1" tooltips="1" connect="1" arrows="1" fold="1" page="0" pageScale="1" pageWidth="827" pageHeight="1169" math="0" shadow="0">
      <root>
        <mxCell id="0" />
        <mxCell id="1" parent="0" />
        <mxCell id="BlSAB6KL2Hd_gQCTBI8V-1" value="user" style="swimlane;fontStyle=0;childLayout=stackLayout;horizontal=1;startSize=26;horizontalStack=0;resizeParent=1;resizeParentMax=0;resizeLast=0;collapsible=1;marginBottom=0;align=center;fontSize=14;labelBackgroundColor=none;fillColor=#182E3E;strokeColor=#FFFFFF;fontColor=#FFFFFF;rounded=1;" vertex="1" parent="1">
          <mxGeometry x="-40" y="310" width="160" height="146" as="geometry" />
        </mxCell>
        <mxCell id="BlSAB6KL2Hd_gQCTBI8V-2" value="id" style="text;strokeColor=none;fillColor=none;spacingLeft=4;spacingRight=4;overflow=hidden;rotatable=0;points=[[0,0.5],[1,0.5]];portConstraint=eastwest;fontSize=12;whiteSpace=wrap;html=1;labelBackgroundColor=none;fontColor=#FFFFFF;rounded=1;" vertex="1" parent="BlSAB6KL2Hd_gQCTBI8V-1">
          <mxGeometry y="26" width="160" height="30" as="geometry" />
        </mxCell>
        <mxCell id="BlSAB6KL2Hd_gQCTBI8V-3" value="email" style="text;strokeColor=none;fillColor=none;spacingLeft=4;spacingRight=4;overflow=hidden;rotatable=0;points=[[0,0.5],[1,0.5]];portConstraint=eastwest;fontSize=12;whiteSpace=wrap;html=1;labelBackgroundColor=none;fontColor=#FFFFFF;rounded=1;" vertex="1" parent="BlSAB6KL2Hd_gQCTBI8V-1">
          <mxGeometry y="56" width="160" height="30" as="geometry" />
        </mxCell>
        <mxCell id="BlSAB6KL2Hd_gQCTBI8V-4" value="password" style="text;strokeColor=none;fillColor=none;spacingLeft=4;spacingRight=4;overflow=hidden;rotatable=0;points=[[0,0.5],[1,0.5]];portConstraint=eastwest;fontSize=12;whiteSpace=wrap;html=1;labelBackgroundColor=none;fontColor=#FFFFFF;rounded=1;" vertex="1" parent="BlSAB6KL2Hd_gQCTBI8V-1">
          <mxGeometry y="86" width="160" height="30" as="geometry" />
        </mxCell>
        <mxCell id="BlSAB6KL2Hd_gQCTBI8V-5" value="role STRING" style="text;strokeColor=none;fillColor=none;spacingLeft=4;spacingRight=4;overflow=hidden;rotatable=0;points=[[0,0.5],[1,0.5]];portConstraint=eastwest;fontSize=12;whiteSpace=wrap;html=1;labelBackgroundColor=none;fontColor=#FFFFFF;rounded=1;" vertex="1" parent="BlSAB6KL2Hd_gQCTBI8V-1">
          <mxGeometry y="116" width="160" height="30" as="geometry" />
        </mxCell>
        <mxCell id="BlSAB6KL2Hd_gQCTBI8V-6" value="basket" style="swimlane;fontStyle=0;childLayout=stackLayout;horizontal=1;startSize=26;horizontalStack=0;resizeParent=1;resizeParentMax=0;resizeLast=0;collapsible=1;marginBottom=0;align=center;fontSize=14;labelBackgroundColor=none;fillColor=#182E3E;strokeColor=#FFFFFF;fontColor=#FFFFFF;rounded=1;" vertex="1" parent="1">
          <mxGeometry x="200" y="310" width="160" height="86" as="geometry" />
        </mxCell>
        <mxCell id="BlSAB6KL2Hd_gQCTBI8V-7" value="id" style="text;strokeColor=none;fillColor=none;spacingLeft=4;spacingRight=4;overflow=hidden;rotatable=0;points=[[0,0.5],[1,0.5]];portConstraint=eastwest;fontSize=12;whiteSpace=wrap;html=1;labelBackgroundColor=none;fontColor=#FFFFFF;rounded=1;" vertex="1" parent="BlSAB6KL2Hd_gQCTBI8V-6">
          <mxGeometry y="26" width="160" height="30" as="geometry" />
        </mxCell>
        <mxCell id="BlSAB6KL2Hd_gQCTBI8V-8" value="user_id" style="text;strokeColor=none;fillColor=none;spacingLeft=4;spacingRight=4;overflow=hidden;rotatable=0;points=[[0,0.5],[1,0.5]];portConstraint=eastwest;fontSize=12;whiteSpace=wrap;html=1;labelBackgroundColor=none;fontColor=#FFFFFF;rounded=1;" vertex="1" parent="BlSAB6KL2Hd_gQCTBI8V-6">
          <mxGeometry y="56" width="160" height="30" as="geometry" />
        </mxCell>
        <mxCell id="BlSAB6KL2Hd_gQCTBI8V-11" value="" style="edgeStyle=entityRelationEdgeStyle;fontSize=12;html=1;endArrow=ERmandOne;startArrow=ERmandOne;rounded=1;entryX=0;entryY=0.5;entryDx=0;entryDy=0;exitX=1;exitY=0.5;exitDx=0;exitDy=0;labelBackgroundColor=none;strokeColor=#23445D;fontColor=default;" edge="1" parent="1" source="BlSAB6KL2Hd_gQCTBI8V-3" target="BlSAB6KL2Hd_gQCTBI8V-7">
          <mxGeometry width="100" height="100" relative="1" as="geometry">
            <mxPoint x="20" y="410" as="sourcePoint" />
            <mxPoint x="120" y="310" as="targetPoint" />
          </mxGeometry>
        </mxCell>
        <mxCell id="BlSAB6KL2Hd_gQCTBI8V-12" value="device" style="swimlane;fontStyle=0;childLayout=stackLayout;horizontal=1;startSize=26;horizontalStack=0;resizeParent=1;resizeParentMax=0;resizeLast=0;collapsible=1;marginBottom=0;align=center;fontSize=14;labelBackgroundColor=none;fillColor=#182E3E;strokeColor=#FFFFFF;fontColor=#FFFFFF;rounded=1;" vertex="1" parent="1">
          <mxGeometry x="600" y="310" width="160" height="236" as="geometry" />
        </mxCell>
        <mxCell id="BlSAB6KL2Hd_gQCTBI8V-13" value="id" style="text;strokeColor=none;fillColor=none;spacingLeft=4;spacingRight=4;overflow=hidden;rotatable=0;points=[[0,0.5],[1,0.5]];portConstraint=eastwest;fontSize=12;whiteSpace=wrap;html=1;labelBackgroundColor=none;fontColor=#FFFFFF;rounded=1;" vertex="1" parent="BlSAB6KL2Hd_gQCTBI8V-12">
          <mxGeometry y="26" width="160" height="30" as="geometry" />
        </mxCell>
        <mxCell id="BlSAB6KL2Hd_gQCTBI8V-14" value="name" style="text;strokeColor=none;fillColor=none;spacingLeft=4;spacingRight=4;overflow=hidden;rotatable=0;points=[[0,0.5],[1,0.5]];portConstraint=eastwest;fontSize=12;whiteSpace=wrap;html=1;labelBackgroundColor=none;fontColor=#FFFFFF;rounded=1;" vertex="1" parent="BlSAB6KL2Hd_gQCTBI8V-12">
          <mxGeometry y="56" width="160" height="30" as="geometry" />
        </mxCell>
        <mxCell id="BlSAB6KL2Hd_gQCTBI8V-15" value="price" style="text;strokeColor=none;fillColor=none;spacingLeft=4;spacingRight=4;overflow=hidden;rotatable=0;points=[[0,0.5],[1,0.5]];portConstraint=eastwest;fontSize=12;whiteSpace=wrap;html=1;labelBackgroundColor=none;fontColor=#FFFFFF;rounded=1;" vertex="1" parent="BlSAB6KL2Hd_gQCTBI8V-12">
          <mxGeometry y="86" width="160" height="30" as="geometry" />
        </mxCell>
        <mxCell id="BlSAB6KL2Hd_gQCTBI8V-16" value="rating" style="text;strokeColor=none;fillColor=none;spacingLeft=4;spacingRight=4;overflow=hidden;rotatable=0;points=[[0,0.5],[1,0.5]];portConstraint=eastwest;fontSize=12;whiteSpace=wrap;html=1;labelBackgroundColor=none;fontColor=#FFFFFF;rounded=1;" vertex="1" parent="BlSAB6KL2Hd_gQCTBI8V-12">
          <mxGeometry y="116" width="160" height="30" as="geometry" />
        </mxCell>
        <mxCell id="BlSAB6KL2Hd_gQCTBI8V-17" value="img" style="text;strokeColor=none;fillColor=none;spacingLeft=4;spacingRight=4;overflow=hidden;rotatable=0;points=[[0,0.5],[1,0.5]];portConstraint=eastwest;fontSize=12;whiteSpace=wrap;html=1;labelBackgroundColor=none;fontColor=#FFFFFF;rounded=1;" vertex="1" parent="BlSAB6KL2Hd_gQCTBI8V-12">
          <mxGeometry y="146" width="160" height="30" as="geometry" />
        </mxCell>
        <mxCell id="BlSAB6KL2Hd_gQCTBI8V-18" value="typeId&lt;span style=&quot;color: rgba(0, 0, 0, 0); font-family: monospace; font-size: 0px; text-wrap: nowrap;&quot;&gt;%3CmxGraphModel%3E%3Croot%3E%3CmxCell%20id%3D%220%22%2F%3E%3CmxCell%20id%3D%221%22%20parent%3D%220%22%2F%3E%3CmxCell%20id%3D%222%22%20value%3D%22price%22%20style%3D%22text%3BstrokeColor%3Dnone%3BfillColor%3Dnone%3BspacingLeft%3D4%3BspacingRight%3D4%3Boverflow%3Dhidden%3Brotatable%3D0%3Bpoints%3D%5B%5B0%2C0.5%5D%2C%5B1%2C0.5%5D%5D%3BportConstraint%3Deastwest%3BfontSize%3D12%3BwhiteSpace%3Dwrap%3Bhtml%3D1%3B%22%20vertex%3D%221%22%20parent%3D%221%22%3E%3CmxGeometry%20x%3D%22630%22%20y%3D%22406%22%20width%3D%22160%22%20height%3D%2230%22%20as%3D%22geometry%22%2F%3E%3C%2FmxCell%3E%3C%2Froot%3E%3C%2FmxGraphModel%3E&lt;/span&gt;" style="text;strokeColor=none;fillColor=none;spacingLeft=4;spacingRight=4;overflow=hidden;rotatable=0;points=[[0,0.5],[1,0.5]];portConstraint=eastwest;fontSize=12;whiteSpace=wrap;html=1;labelBackgroundColor=none;fontColor=#FFFFFF;rounded=1;" vertex="1" parent="BlSAB6KL2Hd_gQCTBI8V-12">
          <mxGeometry y="176" width="160" height="30" as="geometry" />
        </mxCell>
        <mxCell id="BlSAB6KL2Hd_gQCTBI8V-20" value="brandId" style="text;strokeColor=none;fillColor=none;spacingLeft=4;spacingRight=4;overflow=hidden;rotatable=0;points=[[0,0.5],[1,0.5]];portConstraint=eastwest;fontSize=12;whiteSpace=wrap;html=1;labelBackgroundColor=none;fontColor=#FFFFFF;rounded=1;" vertex="1" parent="BlSAB6KL2Hd_gQCTBI8V-12">
          <mxGeometry y="206" width="160" height="30" as="geometry" />
        </mxCell>
        <mxCell id="BlSAB6KL2Hd_gQCTBI8V-21" value="brand" style="swimlane;fontStyle=0;childLayout=stackLayout;horizontal=1;startSize=26;horizontalStack=0;resizeParent=1;resizeParentMax=0;resizeLast=0;collapsible=1;marginBottom=0;align=center;fontSize=14;labelBackgroundColor=none;fillColor=#182E3E;strokeColor=#FFFFFF;fontColor=#FFFFFF;rounded=1;" vertex="1" parent="1">
          <mxGeometry x="600" y="600" width="160" height="86" as="geometry" />
        </mxCell>
        <mxCell id="BlSAB6KL2Hd_gQCTBI8V-22" value="id" style="text;strokeColor=none;fillColor=none;spacingLeft=4;spacingRight=4;overflow=hidden;rotatable=0;points=[[0,0.5],[1,0.5]];portConstraint=eastwest;fontSize=12;whiteSpace=wrap;html=1;labelBackgroundColor=none;fontColor=#FFFFFF;rounded=1;" vertex="1" parent="BlSAB6KL2Hd_gQCTBI8V-21">
          <mxGeometry y="26" width="160" height="30" as="geometry" />
        </mxCell>
        <mxCell id="BlSAB6KL2Hd_gQCTBI8V-23" value="name" style="text;strokeColor=none;fillColor=none;spacingLeft=4;spacingRight=4;overflow=hidden;rotatable=0;points=[[0,0.5],[1,0.5]];portConstraint=eastwest;fontSize=12;whiteSpace=wrap;html=1;labelBackgroundColor=none;fontColor=#FFFFFF;rounded=1;" vertex="1" parent="BlSAB6KL2Hd_gQCTBI8V-21">
          <mxGeometry y="56" width="160" height="30" as="geometry" />
        </mxCell>
        <mxCell id="BlSAB6KL2Hd_gQCTBI8V-25" value="type" style="swimlane;fontStyle=0;childLayout=stackLayout;horizontal=1;startSize=26;horizontalStack=0;resizeParent=1;resizeParentMax=0;resizeLast=0;collapsible=1;marginBottom=0;align=center;fontSize=14;labelBackgroundColor=none;fillColor=#182E3E;strokeColor=#FFFFFF;fontColor=#FFFFFF;rounded=1;" vertex="1" parent="1">
          <mxGeometry x="380" y="600" width="160" height="86" as="geometry" />
        </mxCell>
        <mxCell id="BlSAB6KL2Hd_gQCTBI8V-26" value="id" style="text;strokeColor=none;fillColor=none;spacingLeft=4;spacingRight=4;overflow=hidden;rotatable=0;points=[[0,0.5],[1,0.5]];portConstraint=eastwest;fontSize=12;whiteSpace=wrap;html=1;labelBackgroundColor=none;fontColor=#FFFFFF;rounded=1;" vertex="1" parent="BlSAB6KL2Hd_gQCTBI8V-25">
          <mxGeometry y="26" width="160" height="30" as="geometry" />
        </mxCell>
        <mxCell id="BlSAB6KL2Hd_gQCTBI8V-27" value="name" style="text;strokeColor=none;fillColor=none;spacingLeft=4;spacingRight=4;overflow=hidden;rotatable=0;points=[[0,0.5],[1,0.5]];portConstraint=eastwest;fontSize=12;whiteSpace=wrap;html=1;labelBackgroundColor=none;fontColor=#FFFFFF;rounded=1;" vertex="1" parent="BlSAB6KL2Hd_gQCTBI8V-25">
          <mxGeometry y="56" width="160" height="30" as="geometry" />
        </mxCell>
        <mxCell id="BlSAB6KL2Hd_gQCTBI8V-29" value="" style="edgeStyle=entityRelationEdgeStyle;fontSize=12;html=1;endArrow=ERoneToMany;rounded=1;exitX=0.538;exitY=-0.021;exitDx=0;exitDy=0;exitPerimeter=0;entryX=0;entryY=0.5;entryDx=0;entryDy=0;labelBackgroundColor=none;strokeColor=#23445D;fontColor=default;" edge="1" parent="1" source="BlSAB6KL2Hd_gQCTBI8V-25" target="BlSAB6KL2Hd_gQCTBI8V-17">
          <mxGeometry width="100" height="100" relative="1" as="geometry">
            <mxPoint x="340" y="520" as="sourcePoint" />
            <mxPoint x="440" y="420" as="targetPoint" />
          </mxGeometry>
        </mxCell>
        <mxCell id="BlSAB6KL2Hd_gQCTBI8V-32" value="" style="fontSize=12;html=1;endArrow=ERoneToMany;rounded=1;exitX=0.5;exitY=0;exitDx=0;exitDy=0;labelBackgroundColor=none;strokeColor=#23445D;fontColor=default;" edge="1" parent="1" source="BlSAB6KL2Hd_gQCTBI8V-21" target="BlSAB6KL2Hd_gQCTBI8V-20">
          <mxGeometry width="100" height="100" relative="1" as="geometry">
            <mxPoint x="420" y="856" as="sourcePoint" />
            <mxPoint x="680" y="550" as="targetPoint" />
          </mxGeometry>
        </mxCell>
        <mxCell id="BlSAB6KL2Hd_gQCTBI8V-34" value="" style="edgeStyle=entityRelationEdgeStyle;fontSize=12;html=1;endArrow=ERmany;startArrow=ERmany;rounded=1;entryX=0;entryY=0.5;entryDx=0;entryDy=0;exitX=1;exitY=0.5;exitDx=0;exitDy=0;labelBackgroundColor=none;strokeColor=#23445D;fontColor=default;" edge="1" parent="1" source="BlSAB6KL2Hd_gQCTBI8V-26" target="BlSAB6KL2Hd_gQCTBI8V-22">
          <mxGeometry width="100" height="100" relative="1" as="geometry">
            <mxPoint x="430" y="590" as="sourcePoint" />
            <mxPoint x="530" y="490" as="targetPoint" />
          </mxGeometry>
        </mxCell>
        <mxCell id="BlSAB6KL2Hd_gQCTBI8V-35" value="device_info" style="swimlane;fontStyle=0;childLayout=stackLayout;horizontal=1;startSize=26;horizontalStack=0;resizeParent=1;resizeParentMax=0;resizeLast=0;collapsible=1;marginBottom=0;align=center;fontSize=14;labelBackgroundColor=none;fillColor=#182E3E;strokeColor=#FFFFFF;fontColor=#FFFFFF;rounded=1;" vertex="1" parent="1">
          <mxGeometry x="800" y="310" width="160" height="146" as="geometry" />
        </mxCell>
        <mxCell id="BlSAB6KL2Hd_gQCTBI8V-36" value="id" style="text;strokeColor=none;fillColor=none;spacingLeft=4;spacingRight=4;overflow=hidden;rotatable=0;points=[[0,0.5],[1,0.5]];portConstraint=eastwest;fontSize=12;whiteSpace=wrap;html=1;labelBackgroundColor=none;fontColor=#FFFFFF;rounded=1;" vertex="1" parent="BlSAB6KL2Hd_gQCTBI8V-35">
          <mxGeometry y="26" width="160" height="30" as="geometry" />
        </mxCell>
        <mxCell id="BlSAB6KL2Hd_gQCTBI8V-37" value="device_id" style="text;strokeColor=none;fillColor=none;spacingLeft=4;spacingRight=4;overflow=hidden;rotatable=0;points=[[0,0.5],[1,0.5]];portConstraint=eastwest;fontSize=12;whiteSpace=wrap;html=1;labelBackgroundColor=none;fontColor=#FFFFFF;rounded=1;" vertex="1" parent="BlSAB6KL2Hd_gQCTBI8V-35">
          <mxGeometry y="56" width="160" height="30" as="geometry" />
        </mxCell>
        <mxCell id="BlSAB6KL2Hd_gQCTBI8V-38" value="title" style="text;strokeColor=none;fillColor=none;spacingLeft=4;spacingRight=4;overflow=hidden;rotatable=0;points=[[0,0.5],[1,0.5]];portConstraint=eastwest;fontSize=12;whiteSpace=wrap;html=1;labelBackgroundColor=none;fontColor=#FFFFFF;rounded=1;" vertex="1" parent="BlSAB6KL2Hd_gQCTBI8V-35">
          <mxGeometry y="86" width="160" height="30" as="geometry" />
        </mxCell>
        <mxCell id="BlSAB6KL2Hd_gQCTBI8V-39" value="description" style="text;strokeColor=none;fillColor=none;spacingLeft=4;spacingRight=4;overflow=hidden;rotatable=0;points=[[0,0.5],[1,0.5]];portConstraint=eastwest;fontSize=12;whiteSpace=wrap;html=1;labelBackgroundColor=none;fontColor=#FFFFFF;rounded=1;" vertex="1" parent="BlSAB6KL2Hd_gQCTBI8V-35">
          <mxGeometry y="116" width="160" height="30" as="geometry" />
        </mxCell>
        <mxCell id="BlSAB6KL2Hd_gQCTBI8V-40" value="" style="edgeStyle=entityRelationEdgeStyle;fontSize=12;html=1;endArrow=ERoneToMany;rounded=1;entryX=0;entryY=0.5;entryDx=0;entryDy=0;exitX=1;exitY=0.5;exitDx=0;exitDy=0;labelBackgroundColor=none;strokeColor=#23445D;fontColor=default;" edge="1" parent="1" source="BlSAB6KL2Hd_gQCTBI8V-14" target="BlSAB6KL2Hd_gQCTBI8V-37">
          <mxGeometry width="100" height="100" relative="1" as="geometry">
            <mxPoint x="430" y="470" as="sourcePoint" />
            <mxPoint x="530" y="370" as="targetPoint" />
          </mxGeometry>
        </mxCell>
        <mxCell id="BlSAB6KL2Hd_gQCTBI8V-41" value="basket_device" style="swimlane;fontStyle=0;childLayout=stackLayout;horizontal=1;startSize=26;horizontalStack=0;resizeParent=1;resizeParentMax=0;resizeLast=0;collapsible=1;marginBottom=0;align=center;fontSize=14;labelBackgroundColor=none;fillColor=#182E3E;strokeColor=#FFFFFF;fontColor=#FFFFFF;rounded=1;" vertex="1" parent="1">
          <mxGeometry x="400" y="310" width="160" height="116" as="geometry" />
        </mxCell>
        <mxCell id="BlSAB6KL2Hd_gQCTBI8V-42" value="id" style="text;strokeColor=none;fillColor=none;spacingLeft=4;spacingRight=4;overflow=hidden;rotatable=0;points=[[0,0.5],[1,0.5]];portConstraint=eastwest;fontSize=12;whiteSpace=wrap;html=1;labelBackgroundColor=none;fontColor=#FFFFFF;rounded=1;" vertex="1" parent="BlSAB6KL2Hd_gQCTBI8V-41">
          <mxGeometry y="26" width="160" height="30" as="geometry" />
        </mxCell>
        <mxCell id="BlSAB6KL2Hd_gQCTBI8V-43" value="device_id" style="text;strokeColor=none;fillColor=none;spacingLeft=4;spacingRight=4;overflow=hidden;rotatable=0;points=[[0,0.5],[1,0.5]];portConstraint=eastwest;fontSize=12;whiteSpace=wrap;html=1;labelBackgroundColor=none;fontColor=#FFFFFF;rounded=1;" vertex="1" parent="BlSAB6KL2Hd_gQCTBI8V-41">
          <mxGeometry y="56" width="160" height="30" as="geometry" />
        </mxCell>
        <mxCell id="BlSAB6KL2Hd_gQCTBI8V-44" value="basket_id" style="text;strokeColor=none;fillColor=none;spacingLeft=4;spacingRight=4;overflow=hidden;rotatable=0;points=[[0,0.5],[1,0.5]];portConstraint=eastwest;fontSize=12;whiteSpace=wrap;html=1;labelBackgroundColor=none;fontColor=#FFFFFF;rounded=1;" vertex="1" parent="BlSAB6KL2Hd_gQCTBI8V-41">
          <mxGeometry y="86" width="160" height="30" as="geometry" />
        </mxCell>
        <mxCell id="BlSAB6KL2Hd_gQCTBI8V-45" value="" style="edgeStyle=entityRelationEdgeStyle;fontSize=12;html=1;endArrow=ERoneToMany;rounded=1;labelBackgroundColor=none;strokeColor=#23445D;fontColor=default;" edge="1" parent="1" source="BlSAB6KL2Hd_gQCTBI8V-7" target="BlSAB6KL2Hd_gQCTBI8V-42">
          <mxGeometry width="100" height="100" relative="1" as="geometry">
            <mxPoint x="300" y="490" as="sourcePoint" />
            <mxPoint x="400" y="390" as="targetPoint" />
          </mxGeometry>
        </mxCell>
        <mxCell id="BlSAB6KL2Hd_gQCTBI8V-46" value="" style="edgeStyle=orthogonalEdgeStyle;fontSize=12;html=1;endArrow=ERmandOne;startArrow=ERmandOne;rounded=1;curved=1;labelBackgroundColor=none;strokeColor=#23445D;fontColor=default;" edge="1" parent="1" source="BlSAB6KL2Hd_gQCTBI8V-42" target="BlSAB6KL2Hd_gQCTBI8V-14">
          <mxGeometry width="100" height="100" relative="1" as="geometry">
            <mxPoint x="290" y="530" as="sourcePoint" />
            <mxPoint x="390" y="430" as="targetPoint" />
          </mxGeometry>
        </mxCell>
        <mxCell id="BlSAB6KL2Hd_gQCTBI8V-47" value="rating" style="swimlane;fontStyle=0;childLayout=stackLayout;horizontal=1;startSize=26;horizontalStack=0;resizeParent=1;resizeParentMax=0;resizeLast=0;collapsible=1;marginBottom=0;align=center;fontSize=14;labelBackgroundColor=none;fillColor=#182E3E;strokeColor=#FFFFFF;fontColor=#FFFFFF;rounded=1;" vertex="1" parent="1">
          <mxGeometry x="110" y="546" width="160" height="146" as="geometry" />
        </mxCell>
        <mxCell id="BlSAB6KL2Hd_gQCTBI8V-48" value="id" style="text;strokeColor=none;fillColor=none;spacingLeft=4;spacingRight=4;overflow=hidden;rotatable=0;points=[[0,0.5],[1,0.5]];portConstraint=eastwest;fontSize=12;whiteSpace=wrap;html=1;labelBackgroundColor=none;fontColor=#FFFFFF;rounded=1;" vertex="1" parent="BlSAB6KL2Hd_gQCTBI8V-47">
          <mxGeometry y="26" width="160" height="30" as="geometry" />
        </mxCell>
        <mxCell id="BlSAB6KL2Hd_gQCTBI8V-49" value="user_id" style="text;strokeColor=none;fillColor=none;spacingLeft=4;spacingRight=4;overflow=hidden;rotatable=0;points=[[0,0.5],[1,0.5]];portConstraint=eastwest;fontSize=12;whiteSpace=wrap;html=1;labelBackgroundColor=none;fontColor=#FFFFFF;rounded=1;" vertex="1" parent="BlSAB6KL2Hd_gQCTBI8V-47">
          <mxGeometry y="56" width="160" height="30" as="geometry" />
        </mxCell>
        <mxCell id="BlSAB6KL2Hd_gQCTBI8V-50" value="device_id" style="text;strokeColor=none;fillColor=none;spacingLeft=4;spacingRight=4;overflow=hidden;rotatable=0;points=[[0,0.5],[1,0.5]];portConstraint=eastwest;fontSize=12;whiteSpace=wrap;html=1;labelBackgroundColor=none;fontColor=#FFFFFF;rounded=1;" vertex="1" parent="BlSAB6KL2Hd_gQCTBI8V-47">
          <mxGeometry y="86" width="160" height="30" as="geometry" />
        </mxCell>
        <mxCell id="BlSAB6KL2Hd_gQCTBI8V-51" value="rate" style="text;strokeColor=none;fillColor=none;spacingLeft=4;spacingRight=4;overflow=hidden;rotatable=0;points=[[0,0.5],[1,0.5]];portConstraint=eastwest;fontSize=12;whiteSpace=wrap;html=1;labelBackgroundColor=none;fontColor=#FFFFFF;rounded=1;" vertex="1" parent="BlSAB6KL2Hd_gQCTBI8V-47">
          <mxGeometry y="116" width="160" height="30" as="geometry" />
        </mxCell>
        <mxCell id="BlSAB6KL2Hd_gQCTBI8V-54" value="" style="fontSize=12;html=1;endArrow=ERmany;rounded=1;entryX=1;entryY=0.5;entryDx=0;entryDy=0;exitX=0;exitY=0.5;exitDx=0;exitDy=0;labelBackgroundColor=none;strokeColor=#23445D;fontColor=default;" edge="1" parent="1" source="BlSAB6KL2Hd_gQCTBI8V-16" target="BlSAB6KL2Hd_gQCTBI8V-48">
          <mxGeometry width="100" height="100" relative="1" as="geometry">
            <mxPoint x="520" y="450" as="sourcePoint" />
            <mxPoint x="490" y="480" as="targetPoint" />
          </mxGeometry>
        </mxCell>
        <mxCell id="BlSAB6KL2Hd_gQCTBI8V-55" value="" style="edgeStyle=entityRelationEdgeStyle;fontSize=12;html=1;endArrow=ERmany;rounded=1;exitX=0.495;exitY=1.081;exitDx=0;exitDy=0;exitPerimeter=0;entryX=0.5;entryY=0;entryDx=0;entryDy=0;labelBackgroundColor=none;strokeColor=#23445D;fontColor=default;" edge="1" parent="1" source="BlSAB6KL2Hd_gQCTBI8V-5" target="BlSAB6KL2Hd_gQCTBI8V-47">
          <mxGeometry width="100" height="100" relative="1" as="geometry">
            <mxPoint x="390" y="580" as="sourcePoint" />
            <mxPoint x="490" y="480" as="targetPoint" />
          </mxGeometry>
        </mxCell>
      </root>
    </mxGraphModel>
  </diagram>
</mxfile>
